{"title":"Alleycats 2016 Movies HDRip XviD AAC New Source with Sample ☻rDX","uid":15613507,"size":740466752,"categoryP":"video","categoryS":"movies","magnet":"?xt=urn:btih:10ba013079892b0214304958149f37813ba64fa8&amp;dn=Alleycats+2016+Movies+HDRip+XviD+AAC+New+Source+with+Sample+%E2%98%BBrDX&amp;tr=udp%3A%2F%2Ftracker.leechers-paradise.org%3A6969&amp;tr=udp%3A%2F%2Fzer0day.ch%3A1337&amp;tr=udp%3A%2F%2Fopen.demonii.com%3A1337&amp;tr=udp%3A%2F%2Ftracker.coppersurfer.tk%3A6969&amp;tr=udp%3A%2F%2Fexodus.desync.com%3A6969","seeders":1,"leechers":3,"uploader":"basicssom","files":2,"time":1471806438,"description":"----------------------------------------------------------------\r\nAlleycats 2016 English Movies HDRip XviD AAC New Source with Sample ☻rDX☻\r\n\r\nSCREEN SHOTS &amp; POSTER:\r\n  \nhttp://postimage.co.nr/2016/8/market/index.htm  \nhttp://postimage.co.nr/2016/8/market/1.html  \nhttp://postimage.co.nr/2016/8/market/2.html  \nhttp://postimage.co.nr/2016/8/market/3.html  \nhttp://postimage.co.nr/2016/8/market/4.html  \nhttp://postimage.co.nr/2016/8/market/5.html  \nhttp://postimage.co.nr/2016/8/market/6.html  \nhttp://postimage.co.nr/2016/8/market/7.html  \nhttp://postimage.co.nr/2016/8/market/8.html  \nhttp://postimage.co.nr/2016/8/market/9.html  \nhttp://postimage.co.nr/2016/8/market/10.html\r\n\r\nFormat                                   : Matroska\r\nFormat version                           : Version 4 / Version 2\r\nFile size                                : 694 MiB\r\nDuration                                 : 1 h 41 min\r\nOverall bit rate                         : 960 kb/s\r\nMovie name                               : Alleycats 2016 English Movies HDRip XviD AAC New Source ☻rDX☻\r\n\r\nVideo\r\nID                                       : 1\r\nFormat                                   : MPEG-4 Visual\r\nFormat profile                           : Advanced   \r\nFormat settings, BVOP                    : 2\r\nFormat settings, QPel                    : No\r\nFormat settings, GMC                     : No warppoints\r\nFormat settings, Matrix                  : Default (H.263)\r\nMuxing mode                              : Packed bitstream\r\nCodec ID                                 : V_MS/VFW/FOURCC / XVID\r\nCodec ID/Hint                            : XviD\r\nDuration                                 : 1 h 41 min\r\nBit rate                                 : 829 kb/s\r\nWidth                                    : 640 pixels\r\nHeight                                   : 272 pixels\r\nDisplay aspect ratio                     : 2.35:1\r\nFrame rate mode                          : Constant\r\nFrame rate                               : 23.976 (24000/1001) FPS\r\nColor space                              : YUV\r\nChroma subsampling                       : 4:2:0\r\nBit depth                                : 8 bits\r\nScan type                                : Progressive\r\nCompression mode                         : Lossy\r\nBits/(Pixel*Frame)                       : 0.199\r\nStream size                              : 599 MiB (86%)\r\nTitle                                    : ☻rDX☻\r\nWriting library                          : XviD 64\r\nDefault                                  : Yes\r\nForced                                   : No\r\n\r\nAudio\r\nID                                       : 2\r\nFormat                                   : MPEG Audio\r\nFormat version                           : Version 1\r\nFormat profile                           : Layer 3\r\nMode                                     : Joint stereo\r\nCodec ID                                 : A_MPEG/L3\r\nCodec ID/Hint                            : MP3\r\nDuration                                 : 1 h 41 min\r\nBit rate mode                            : Constant\r\nBit rate                                 : 112 kb/s\r\nChannel(s)                               : 2 channels\r\nSampling rate                            : 48.0 kHz\r\nCompression mode                         : Lossy\r\nStream size                              : 81.0 MiB (12%)\r\nTitle                                    : ☻rDX☻\r\nWriting library                          : LAME3.99r\r\nEncoding settings                        : -m j -V 4 -q 3 -lowpass 15.6 -b 112\r\nDefault                                  : Yes\r\nForced                                   : No\r\n\r\nIMDB \nhttp://www.imdb.com/title/tt3917318/","torrent":{"xt":"urn:btih:10ba013079892b0214304958149f37813ba64fa8","amp;dn":"Alleycats+2016+Movies+HDRip+XviD+AAC+New+Source+with+Sample+%E2%98%BBrDX","amp;tr":["udp%3A%2F%2Ftracker.leechers-paradise.org%3A6969","udp%3A%2F%2Fzer0day.ch%3A1337","udp%3A%2F%2Fopen.demonii.com%3A1337","udp%3A%2F%2Ftracker.coppersurfer.tk%3A6969","udp%3A%2F%2Fexodus.desync.com%3A6969"],"infoHash":"10ba013079892b0214304958149f37813ba64fa8","infoHashBuffer":{"type":"Buffer","data":[16,186,1,48,121,137,43,2,20,48,73,88,20,159,55,129,59,166,79,168]},"announce":[],"urlList":[]}}